<?xml version="1.0" encoding="UTF-8" standalone="no"?>
<svg width="55px" height="52px" viewBox="0 0 55 52" version="1.1" xmlns="http://www.w3.org/2000/svg" xmlns:xlink="http://www.w3.org/1999/xlink" xmlns:sketch="http://www.bohemiancoding.com/sketch/ns">
    <!-- Generator: Sketch 3.3.1 (12005) - http://www.bohemiancoding.com/sketch -->
    <title>ico_btn_action_close</title>
    <desc>Created with Sketch.</desc>
    <defs></defs>
    <g id="Sauvignon" stroke="none" stroke-width="1" fill="none" fill-rule="evenodd" sketch:type="MSPage">
        <g id="Product-List" sketch:type="MSArtboardGroup" transform="translate(-524.000000, -672.000000)">
            <g id="Slices" sketch:type="MSLayerGroup" transform="translate(136.000000, 541.000000)"></g>
            <g id="content" sketch:type="MSLayerGroup" transform="translate(0.000000, 124.000000)" fill="#FFFFFF">
                <g id="cell-expanded" transform="translate(0.000000, 495.000000)" sketch:type="MSShapeGroup">
                    <g id="actions" transform="translate(197.000000, 52.000000)">
                        <g id="close" transform="translate(331.000000, 3.000000)">
                            <path d="M23.1,2 C11.465,2 2,11.46 2,23.09 C2,34.73 11.465,44.19 23.1,44.19 C34.735,44.19 44.199,34.73 44.199,23.09 C44.199,11.46 34.735,2 23.1,2 L23.1,2 Z M23.1,46.19 C10.363,46.19 0,35.83 0,23.09 C0,10.36 10.363,0 23.1,0 C35.837,0 46.199,10.36 46.199,23.09 C46.199,35.83 35.837,46.19 23.1,46.19 L23.1,46.19 Z" id="Fill-209"></path>
                            <path d="M28.306,29.01 L17,17.71 L17.707,17 L29.013,28.3 L28.306,29.01" id="Fill-210"></path>
                            <path d="M17.707,29.01 L17,28.3 L28.306,17 L29.013,17.71 L17.707,29.01" id="Fill-211"></path>
                        </g>
                    </g>
                </g>
            </g>
        </g>
    </g>
</svg>