<?xml version="1.0" encoding="UTF-8" standalone="no"?>
<svg width="65px" height="68px" viewBox="0 0 65 68" version="1.1" xmlns="http://www.w3.org/2000/svg" xmlns:xlink="http://www.w3.org/1999/xlink" xmlns:sketch="http://www.bohemiancoding.com/sketch/ns">
    <!-- Generator: Sketch 3.3.1 (12005) - http://www.bohemiancoding.com/sketch -->
    <title>ico_love_small@2x</title>
    <desc>Created with Sketch.</desc>
    <defs></defs>
    <g id="Sauvignon" stroke="none" stroke-width="1" fill="none" fill-rule="evenodd" sketch:type="MSPage">
        <g id="Outlets-page" sketch:type="MSArtboardGroup" transform="translate(-574.000000, -248.000000)">
            <g id="Slices" sketch:type="MSLayerGroup" transform="translate(22.000000, 150.000000)"></g>
            <g id="content" sketch:type="MSLayerGroup" transform="translate(0.000000, 123.000000)">
                <g id="cell1" transform="translate(0.000000, 125.000000)" sketch:type="MSShapeGroup">
                    <path d="M561.688935,-11.8433345 L648.365098,64.2338697 L648.365098,-11.8526124 L561.688935,-11.8433345 Z" id="type" fill="#BA90FF" transform="translate(604.942248, 26.327481) rotate(4.000000) translate(-604.942248, -26.327481) "></path>
                    <path d="M622.999742,34 C622.64693,34 622.317363,33.8628238 622.070963,33.6130794 L614.080261,25.799272 C614.068896,25.7903712 611,23.0442295 611,19.6027824 C611,15.529906 613.545102,13 617.642474,13 C619.80842,13 621.815781,14.5010845 622.999742,15.6058241 C624.184219,14.5010845 626.19158,13 628.357526,13 C632.454898,13 635,15.529906 635,19.6027824 C635,22.5939565 632.650158,25.1050138 631.93007,25.8034606 L623.922322,33.6198858 C623.682637,33.8628238 623.35307,34 622.999742,34 L622.999742,34 Z" id="Fill-25" fill="#FFFFFF"></path>
                </g>
            </g>
        </g>
    </g>
</svg>