<?xml version="1.0" encoding="UTF-8" standalone="no"?>
<svg width="27px" height="27px" viewBox="0 0 27 27" version="1.1" xmlns="http://www.w3.org/2000/svg" xmlns:xlink="http://www.w3.org/1999/xlink" xmlns:sketch="http://www.bohemiancoding.com/sketch/ns">
    <!-- Generator: Sketch 3.3.1 (12005) - http://www.bohemiancoding.com/sketch -->
    <title>ico_btn_search</title>
    <desc>Created with Sketch.</desc>
    <defs></defs>
    <g id="Sauvignon-Icons" stroke="none" stroke-width="1" fill="none" fill-rule="evenodd" sketch:type="MSPage">
        <g id="search_1_-+-camera" sketch:type="MSLayerGroup" transform="translate(-1.000000, -160.000000)" fill="#333333">
            <g id="search_1_" transform="translate(0.000000, 159.000000)" sketch:type="MSShapeGroup">
                <path d="M18.0625,1.50414062 C12.5745156,1.50414062 8.125,5.95365625 8.125,11.4416406 C8.125,13.1194219 8.54485937,14.6986562 9.28023437,16.0857656 L2.37035938,22.9939844 L2.37615625,22.9989531 C1.83621875,23.5297812 1.5,24.2651562 1.5,25.0825156 C1.5,26.6965312 2.8084375,28.0049687 4.42245313,28.0049687 C5.23815625,28.0049687 5.97435938,27.66875 6.5051875,27.1279844 L6.50353125,27.1263281 L13.4109219,20.2197656 C14.7988594,20.957625 16.3805781,21.3791406 18.0625,21.3791406 C23.5504844,21.3791406 28,16.929625 28,11.4416406 C28,5.95365625 23.5504844,1.50414062 18.0625,1.50414062 L18.0625,1.50414062 Z M5.47085937,26.0928281 C5.20420312,26.3694219 4.83485938,26.5425 4.42245313,26.5425 C3.61503125,26.5425 2.9608125,25.8891094 2.9608125,25.0816875 C2.9608125,24.6692812 3.13471875,24.3007656 3.41048438,24.0332812 L3.40303125,24.0266562 L10.0826875,17.347 C10.6665156,18.1345469 11.3621406,18.8301719 12.1480313,19.4156562 L5.47085937,26.0928281 L5.47085937,26.0928281 Z M18.0625,19.7237187 C13.4895937,19.7237187 9.78125,16.0145469 9.78125,11.4424687 C9.78125,6.8695625 13.4895937,3.16121875 18.0625,3.16121875 C22.6345781,3.16121875 26.34375,6.8695625 26.34375,11.4424687 C26.34375,16.0145469 22.6345781,19.7237187 18.0625,19.7237187 L18.0625,19.7237187 Z" id="Shape"></path>
                <path d="M18.0625,5.64476562 C14.8601406,5.64476562 12.265625,8.24010937 12.265625,11.4416406 C12.265625,11.6702031 12.451125,11.8557031 12.6796875,11.8557031 C12.90825,11.8557031 13.09375,11.6702031 13.09375,11.4416406 C13.09375,8.6980625 15.3180937,6.47289062 18.0625,6.47289062 C18.2902344,6.47289062 18.4765625,6.28739062 18.4765625,6.05882812 C18.4765625,5.83026562 18.2902344,5.64476562 18.0625,5.64476562 L18.0625,5.64476562 Z" id="Shape"></path>
            </g>
        </g>
    </g>
</svg>