<?xml version="1.0" encoding="UTF-8" standalone="no"?>
<svg width="15px" height="16px" viewBox="0 0 15 16" version="1.1" xmlns="http://www.w3.org/2000/svg" xmlns:xlink="http://www.w3.org/1999/xlink" xmlns:sketch="http://www.bohemiancoding.com/sketch/ns">
    <!-- Generator: Sketch 3.3.1 (12005) - http://www.bohemiancoding.com/sketch -->
    <title>ico_phone</title>
    <desc>Created with Sketch.</desc>
    <defs></defs>
    <g id="Sauvignon-Icons" stroke="none" stroke-width="1" fill="none" fill-rule="evenodd" sketch:type="MSPage">
        <g id="Group" sketch:type="MSLayerGroup" transform="translate(-116.000000, -201.000000)" fill="#343535">
            <g id="Fill-163-+-ico_phone" transform="translate(115.000000, 199.000000)" sketch:type="MSShapeGroup">
                <path d="M1.752625,5.8375 C1.82725,7.64875 3.6835,11.305 5.440375,13.06 C7.19725,14.81875 10.850875,16.675 12.664,16.75 C13.931125,15.8875 15.25,14.71375 15.25,14.275 C15.25,13.645 13.3135,11.60875 12.32125,11.60875 C12.1885,11.60875 12.128125,11.65375 12.09025,11.69125 C11.758375,12.025 11.5495,12.3625 11.365375,12.65875 C11.048875,13.1725 10.7215,13.70125 9.925,13.70125 C8.82025,13.70125 7.79875,12.68125 6.811,11.69125 C5.82175,10.705 4.80025,9.68125 4.80025,8.575 C4.80025,7.78 5.330125,7.45375 5.842375,7.135 C6.140125,6.95125 6.478,6.74125 6.809875,6.41125 C6.957625,6.265 6.87775,5.965 6.785125,5.74 C6.304,4.58125 4.668625,3.25 4.225,3.25 C3.788125,3.25 2.61175,4.57 1.752625,5.8375 L1.752625,5.8375 Z M12.888625,17.5 L12.775,17.5 C10.816,17.5 6.846625,15.5275 4.910125,13.5925 C2.97325,11.65375 1,7.68625 1,5.725 L1,5.6125 L1.063,5.51875 C1.535125,4.81 3.157375,2.5 4.225,2.5 C5.116375,2.5 6.940375,4.1575 7.47775,5.455 C7.804375,6.2425 7.5835,6.7 7.3405,6.94 C6.94675,7.33375 6.553,7.5775 6.2365,7.7725 C5.7265,8.0875 5.55025,8.215 5.55025,8.575 C5.55025,9.37 6.46,10.28125 7.3405,11.1625 C8.221,12.04 9.13075,12.95125 9.925,12.95125 C10.285,12.95125 10.412125,12.775 10.7275,12.265 C10.922875,11.95 11.16625,11.55625 11.56,11.1625 C11.756875,10.96375 12.020125,10.85875 12.32125,10.85875 C13.690375,10.85875 16,13.1875 16,14.275 C16,15.34375 13.69075,16.9675 12.983125,17.43625 L12.888625,17.5 L12.888625,17.5 Z" id="Fill-163"></path>
            </g>
        </g>
    </g>
</svg>