<?xml version="1.0" encoding="UTF-8" standalone="no"?>
<svg width="44px" height="40px" viewBox="0 0 44 40" version="1.1" xmlns="http://www.w3.org/2000/svg" xmlns:xlink="http://www.w3.org/1999/xlink" xmlns:sketch="http://www.bohemiancoding.com/sketch/ns">
    <!-- Generator: Sketch 3.3.1 (12005) - http://www.bohemiancoding.com/sketch -->
    <title>ico_header_filter</title>
    <desc>Created with Sketch.</desc>
    <defs></defs>
    <g id="Sauvignon" stroke="none" stroke-width="1" fill="none" fill-rule="evenodd" sketch:type="MSPage">
        <g id="Product-List-Active-Filters" sketch:type="MSArtboardGroup" transform="translate(-566.000000, -61.000000)" fill="#FFFFFF">
            <g id="header-nav" sketch:type="MSLayerGroup" transform="translate(0.000000, 36.000000)">
                <g id="filter" transform="translate(566.000000, 25.000000)" sketch:type="MSShapeGroup">
                    <path d="M14.476,5.32972973 C14.476,5.72972973 14.41,6.11891892 14.3,6.48648649 L42.526,6.48648649 C43.142,6.48648649 43.626,6 43.626,5.40540541 C43.626,4.8 43.142,4.32432432 42.526,4.32432432 L14.344,4.32432432 C14.421,4.64864865 14.476,4.98378378 14.476,5.32972973" id="Fill-269"></path>
                    <path d="M6.193,5.32972973 C6.193,4.98378378 6.248,4.64864865 6.336,4.32432432 L1.1,4.32432432 C0.495,4.32432432 0,4.8 0,5.40540541 C0,6 0.495,6.48648649 1.1,6.48648649 L6.38,6.48648649 C6.27,6.11891892 6.193,5.72972973 6.193,5.32972973" id="Fill-270"></path>
                    <path d="M35.376,20.4648649 C35.376,20.8648649 35.299,21.2540541 35.2,21.6216216 L42.042,21.6216216 C42.658,21.6216216 43.142,21.1351351 43.142,20.5405405 C43.142,19.9351351 42.658,19.4594595 42.042,19.4594595 L35.233,19.4594595 C35.321,19.7837838 35.376,20.1189189 35.376,20.4648649" id="Fill-271"></path>
                    <path d="M27.577,20.4648649 C27.577,20.1189189 27.632,19.7837838 27.709,19.4594595 L1.1,19.4594595 C0.495,19.4594595 0,19.9351351 0,20.5405405 C0,21.1351351 0.495,21.6216216 1.1,21.6216216 L27.753,21.6216216 C27.654,21.2540541 27.577,20.8648649 27.577,20.4648649" id="Fill-272"></path>
                    <path d="M19.976,35.6 C19.976,36.0108108 19.91,36.3891892 19.8,36.7567568 L41.976,36.7567568 C42.592,36.7567568 43.076,36.2702703 43.076,35.6756757 C43.076,35.0810811 42.592,34.5945946 41.976,34.5945946 L19.844,34.5945946 C19.921,34.9189189 19.976,35.2540541 19.976,35.6" id="Fill-273"></path>
                    <path d="M12.243,35.6 C12.243,35.2540541 12.298,34.9189189 12.386,34.5945946 L1.1,34.5945946 C0.495,34.5945946 0,35.0810811 0,35.6756757 C0,36.2702703 0.495,36.7567568 1.1,36.7567568 L12.43,36.7567568 C12.32,36.3891892 12.243,36.0108108 12.243,35.6" id="Fill-274"></path>
                    <path d="M10.384,1.08108108 C8.294,1.08108108 6.6,2.74594595 6.6,4.78918919 C6.6,6.84324324 8.294,8.50810811 10.384,8.50810811 C12.463,8.50810811 14.157,6.84324324 14.157,4.78918919 C14.157,2.74594595 12.463,1.08108108 10.384,1.08108108 L10.384,1.08108108 Z M10.384,9.58918919 C7.689,9.58918919 5.5,7.43783784 5.5,4.78918919 C5.5,2.15135135 7.689,0 10.384,0 C13.068,0 15.257,2.15135135 15.257,4.78918919 C15.257,7.43783784 13.068,9.58918919 10.384,9.58918919 L10.384,9.58918919 Z" id="Fill-275"></path>
                    <path d="M31.273,16.2162162 C29.194,16.2162162 27.5,17.8810811 27.5,19.9243243 C27.5,21.9783784 29.194,23.6432432 31.273,23.6432432 C33.363,23.6432432 35.057,21.9783784 35.057,19.9243243 C35.057,17.8810811 33.363,16.2162162 31.273,16.2162162 L31.273,16.2162162 Z M31.273,24.7243243 C28.589,24.7243243 26.4,22.572973 26.4,19.9243243 C26.4,17.2864865 28.589,15.1351351 31.273,15.1351351 C33.968,15.1351351 36.157,17.2864865 36.157,19.9243243 C36.157,22.572973 33.968,24.7243243 31.273,24.7243243 L31.273,24.7243243 Z" id="Fill-276"></path>
                    <path d="M15.884,31.3513514 C13.794,31.3513514 12.1,33.0162162 12.1,35.0594595 C12.1,37.1135135 13.794,38.7783784 15.884,38.7783784 C17.963,38.7783784 19.657,37.1135135 19.657,35.0594595 C19.657,33.0162162 17.963,31.3513514 15.884,31.3513514 L15.884,31.3513514 Z M15.884,39.8594595 C13.189,39.8594595 11,37.7081081 11,35.0594595 C11,32.4216216 13.189,30.2702703 15.884,30.2702703 C18.568,30.2702703 20.757,32.4216216 20.757,35.0594595 C20.757,37.7081081 18.568,39.8594595 15.884,39.8594595 L15.884,39.8594595 Z" id="Fill-277"></path>
                </g>
            </g>
        </g>
    </g>
</svg>