<?xml version="1.0" encoding="UTF-8" standalone="no"?>
<svg width="25px" height="25px" viewBox="0 0 25 25" version="1.1" xmlns="http://www.w3.org/2000/svg" xmlns:xlink="http://www.w3.org/1999/xlink" xmlns:sketch="http://www.bohemiancoding.com/sketch/ns">
    <!-- Generator: Sketch 3.3.1 (12005) - http://www.bohemiancoding.com/sketch -->
    <title>ico_nav_settings</title>
    <desc>Created with Sketch.</desc>
    <defs></defs>
    <g id="Sauvignon-Icons" stroke="none" stroke-width="1" fill="none" fill-rule="evenodd" sketch:type="MSPage">
        <g id="Group" sketch:type="MSLayerGroup" transform="translate(-518.000000, -916.000000)" fill="#FFFFFF">
            <g id="settings" transform="translate(508.000000, 915.000000)" sketch:type="MSShapeGroup">
                <path d="M21.173,24.1670306 L23.576,24.1670306 L24.152,20.7120306 L24.4575,20.6270306 C25.0245,20.4670306 25.5735,20.2420306 26.0885,19.9520306 L26.365,19.7970306 L29.215,21.8320306 L30.914,20.1320306 L28.8785,17.2820306 L29.0325,17.0070306 C29.322,16.4870306 29.5495,15.9370306 29.7085,15.3770306 L29.7945,15.0670306 L33.249,14.4970306 L33.249,12.0920306 L29.795,11.5170306 L29.7085,11.2120306 C29.5475,10.6420306 29.3205,10.0920306 29.033,9.58203057 L28.878,9.30203057 L30.914,6.45203057 L29.215,4.75203057 L26.365,6.78703057 L26.089,6.63203057 C25.568,6.34203057 25.019,6.11703057 24.4575,5.95703057 L24.152,5.87203057 L23.576,2.41703057 L21.173,2.41703057 L20.597,5.87203057 L20.292,5.95703057 C19.7245,6.12203057 19.1755,6.34703057 18.6605,6.63703057 L18.384,6.78703057 L15.5335,4.75203057 L13.835,6.45203057 L15.8705,9.30203057 L15.7165,9.58203057 C15.4275,10.0970306 15.2,10.6470306 15.0405,11.2120306 L14.954,11.5170306 L11.5,12.0920306 L11.5,14.4970306 L14.9545,15.0720306 L15.0405,15.3770306 C15.2015,15.9470306 15.4285,16.4920306 15.716,17.0070306 L15.871,17.2820306 L13.835,20.1320306 L15.534,21.8320306 L18.384,19.7970306 L18.66,19.9520306 C19.1815,20.2420306 19.73,20.4720306 20.2915,20.6270306 L20.597,20.7170306 L21.173,24.1670306 L21.173,24.1670306 Z M24.423,25.1670306 L20.326,25.1670306 L19.714,21.4970306 C19.284,21.3570306 18.863,21.1870306 18.455,20.9770306 L15.4255,23.1370306 L12.529,20.2420306 L14.6925,17.2120306 C14.486,16.8070306 14.3115,16.3870306 14.171,15.9520306 L10.5,15.3420306 L10.5,11.2470306 L14.171,10.6320306 C14.311,10.2020306 14.4855,9.78203057 14.6925,9.37203057 L12.529,6.34203057 L15.426,3.44703057 L18.455,5.61203057 C18.8595,5.40203057 19.281,5.23203057 19.714,5.09203057 L20.326,1.41703057 L24.423,1.41703057 L25.035,5.08703057 C25.465,5.22703057 25.886,5.40203057 26.294,5.61203057 L29.3235,3.44703057 L32.22,6.34203057 L30.0565,9.37203057 C30.263,9.77703057 30.4375,10.1970306 30.578,10.6320306 L34.249,11.2470306 L34.249,15.3420306 L30.578,15.9520306 C30.4385,16.3820306 30.264,16.8020306 30.056,17.2120306 L32.22,20.2420306 L29.3235,23.1370306 L26.294,20.9770306 C25.889,21.1820306 25.468,21.3570306 25.035,21.4970306 L24.423,25.1670306 L24.423,25.1670306 Z" id="Fill-216"></path>
                <path d="M22.5,10.4170306 C20.8455,10.4170306 19.5,11.7620306 19.5,13.4170306 C19.5,15.0720306 20.8455,16.4170306 22.5,16.4170306 C24.154,16.4170306 25.4995,15.0720306 25.4995,13.4170306 C25.4995,11.7620306 24.154,10.4170306 22.5,10.4170306 L22.5,10.4170306 Z M22.5,16.9170306 C20.57,16.9170306 19,15.3470306 19,13.4170306 C19,11.4870306 20.57,9.91703057 22.5,9.91703057 C24.4295,9.91703057 25.9995,11.4870306 25.9995,13.4170306 C25.9995,15.3470306 24.4295,16.9170306 22.5,16.9170306 L22.5,16.9170306 Z" id="Fill-217"></path>
            </g>
        </g>
    </g>
</svg>