<?xml version="1.0" encoding="UTF-8" standalone="no"?>
<svg width="55px" height="52px" viewBox="0 0 55 52" version="1.1" xmlns="http://www.w3.org/2000/svg" xmlns:xlink="http://www.w3.org/1999/xlink" xmlns:sketch="http://www.bohemiancoding.com/sketch/ns">
    <!-- Generator: Sketch 3.3.1 (12005) - http://www.bohemiancoding.com/sketch -->
    <title>ico_btn_action_love_active</title>
    <desc>Created with Sketch.</desc>
    <defs></defs>
    <g id="Sauvignon" stroke="none" stroke-width="1" fill="none" fill-rule="evenodd" sketch:type="MSPage">
        <g id="Product-List" sketch:type="MSArtboardGroup" transform="translate(-263.000000, -670.000000)">
            <g id="Slices" sketch:type="MSLayerGroup" transform="translate(136.000000, 541.000000)"></g>
            <g id="content" sketch:type="MSLayerGroup" transform="translate(0.000000, 124.000000)" fill="#FFFFFF">
                <g id="cell-expanded" transform="translate(0.000000, 495.000000)" sketch:type="MSShapeGroup">
                    <g id="actions" transform="translate(197.000000, 52.000000)">
                        <path d="M93.23,45.109 C92.547,45.109 91.909,44.847 91.432,44.37 L75.963,29.446 C75.941,29.429 70,24.184 70,17.611 C70,9.832 74.927,5 82.859,5 C87.052,5 90.938,7.867 93.23,9.977 C95.523,7.867 99.409,5 103.602,5 C111.534,5 116.461,9.832 116.461,17.611 C116.461,23.324 111.912,28.12 110.518,29.454 L95.016,44.383 C94.552,44.847 93.914,45.109 93.23,45.109 L93.23,45.109 Z" id="Fill-26"></path>
                    </g>
                </g>
            </g>
        </g>
    </g>
</svg>