<?xml version="1.0" encoding="UTF-8" standalone="no"?>
<svg width="55px" height="52px" viewBox="0 0 55 52" version="1.1" xmlns="http://www.w3.org/2000/svg" xmlns:xlink="http://www.w3.org/1999/xlink" xmlns:sketch="http://www.bohemiancoding.com/sketch/ns">
    <!-- Generator: Sketch 3.3.1 (12005) - http://www.bohemiancoding.com/sketch -->
    <title>ico_btn_action_love</title>
    <desc>Created with Sketch.</desc>
    <defs></defs>
    <g id="Sauvignon" stroke="none" stroke-width="1" fill="none" fill-rule="evenodd" sketch:type="MSPage">
        <g id="Product-List" sketch:type="MSArtboardGroup" transform="translate(-193.000000, -670.000000)">
            <g id="Slices" sketch:type="MSLayerGroup" transform="translate(136.000000, 541.000000)"></g>
            <g id="content" sketch:type="MSLayerGroup" transform="translate(0.000000, 124.000000)" fill="#FFFFFF">
                <g id="cell-expanded" transform="translate(0.000000, 495.000000)" sketch:type="MSShapeGroup">
                    <g id="actions" transform="translate(197.000000, 52.000000)">
                        <path d="M12.859,7 C5.958,7 2,10.868 2,17.611 C2,23.145 7.261,27.926 7.314,27.973 L22.833,42.943 C22.979,43.089 23.144,43.109 23.23,43.109 C23.317,43.109 23.481,43.089 23.615,42.956 L39.085,28.056 C40.385,26.813 44.461,22.531 44.461,17.611 C44.461,10.868 40.503,7 33.602,7 C29.658,7 25.851,10.177 23.933,12.07 L23.23,12.764 L22.528,12.07 C20.61,10.177 16.803,7 12.859,7 L12.859,7 Z M23.23,45.109 C22.547,45.109 21.909,44.847 21.432,44.37 L5.963,29.446 C5.941,29.429 0,24.184 0,17.611 C0,9.832 4.927,5 12.859,5 C17.052,5 20.938,7.867 23.23,9.977 C25.523,7.867 29.409,5 33.602,5 C41.534,5 46.461,9.832 46.461,17.611 C46.461,23.324 41.912,28.12 40.518,29.454 L25.016,44.383 C24.552,44.847 23.914,45.109 23.23,45.109 L23.23,45.109 Z" id="Fill-25"></path>
                    </g>
                </g>
            </g>
        </g>
    </g>
</svg>