<?xml version="1.0" encoding="UTF-8" standalone="no"?>
<svg width="12px" height="18px" viewBox="0 0 12 18" version="1.1" xmlns="http://www.w3.org/2000/svg" xmlns:xlink="http://www.w3.org/1999/xlink" xmlns:sketch="http://www.bohemiancoding.com/sketch/ns">
    <!-- Generator: Sketch 3.3.1 (12005) - http://www.bohemiancoding.com/sketch -->
    <title>ico_direction</title>
    <desc>Created with Sketch.</desc>
    <defs></defs>
    <g id="Sauvignon-Icons" stroke="none" stroke-width="1" fill="none" fill-rule="evenodd" sketch:type="MSPage">
        <g id="Group" sketch:type="MSLayerGroup" transform="translate(-348.000000, -200.000000)" fill="#343535">
            <g id="Fill-153-+-Fill-154-+-Fill-155" transform="translate(347.000000, 199.000000)" sketch:type="MSShapeGroup">
                <path d="M6.93548387,1.74468085 C4.2763871,1.74468085 2.11290323,3.91579787 2.11290323,6.58510638 C2.11290323,8.91968085 5.85559677,13.9038298 6.93548387,15.2934043 C8.01574194,13.9038298 11.7580645,8.91968085 11.7580645,6.58510638 C11.7580645,3.91579787 9.59495161,1.74468085 6.93548387,1.74468085 L6.93548387,1.74468085 Z M6.93548387,16.4848936 L6.64724194,16.1281915 C6.43208065,15.8615957 1.37096774,9.56196809 1.37096774,6.58510638 C1.37096774,3.50547872 3.86720968,1 6.93548387,1 C10.0037581,1 12.5,3.50547872 12.5,6.58510638 C12.5,9.56196809 7.43925806,15.8615957 7.22372581,16.1281915 L6.93548387,16.4848936 L6.93548387,16.4848936 Z" id="Fill-153"></path>
                <path d="M6.75,4.35106383 C5.42045161,4.35106383 4.33870968,5.43680851 4.33870968,6.7712766 C4.33870968,8.10574468 5.42045161,9.19148936 6.75,9.19148936 C8.07954839,9.19148936 9.16129032,8.10574468 9.16129032,6.7712766 C9.16129032,5.43680851 8.07954839,4.35106383 6.75,4.35106383 L6.75,4.35106383 Z M6.75,9.56382979 C5.21567742,9.56382979 3.96774194,8.3112766 3.96774194,6.7712766 C3.96774194,5.2312766 5.21567742,3.9787234 6.75,3.9787234 C8.28432258,3.9787234 9.53225806,5.2312766 9.53225806,6.7712766 C9.53225806,8.3112766 8.28432258,9.56382979 6.75,9.56382979 L6.75,9.56382979 Z" id="Fill-154"></path>
                <path d="M9.46622581,14.7765957 L9.46622581,15.1556383 C11.1099839,15.4728723 12.1290323,16.051117 12.1290323,16.5891489 C12.1290323,17.3818617 9.91991935,18.2646809 6.75,18.2646809 C3.58008065,18.2646809 1.37096774,17.3818617 1.37096774,16.5891489 C1.37096774,16.051117 2.38964516,15.4728723 4.03340323,15.1560106 L4.03340323,14.7765957 C2.32435484,15.0871277 1,15.7003723 1,16.5891489 C1,17.9191489 3.96254839,18.6370213 6.75,18.6370213 C9.53745161,18.6370213 12.5,17.9191489 12.5,16.5891489 C12.5,15.7003723 11.1752742,15.0871277 9.46622581,14.7765957" id="Fill-155"></path>
            </g>
        </g>
    </g>
</svg>