<?xml version="1.0" encoding="UTF-8" standalone="no"?>
<svg width="22px" height="20px" viewBox="0 0 22 20" version="1.1" xmlns="http://www.w3.org/2000/svg" xmlns:xlink="http://www.w3.org/1999/xlink" xmlns:sketch="http://www.bohemiancoding.com/sketch/ns">
    <!-- Generator: Sketch 3.3.1 (12005) - http://www.bohemiancoding.com/sketch -->
    <title>ico_header_filter</title>
    <desc>Created with Sketch.</desc>
    <defs></defs>
    <g id="Sauvignon-Icons" stroke="none" stroke-width="1" fill="none" fill-rule="evenodd" sketch:type="MSPage">
        <g id="filter-2-+-clear-+-filter" sketch:type="MSLayerGroup" transform="translate(-550.000000, 0.000000)" fill="#FFFFFF">
            <g id="filter" transform="translate(550.000000, 0.000000)" sketch:type="MSShapeGroup">
                <path d="M7.238,2.66486486 C7.238,2.86486486 7.205,3.05945946 7.15,3.24324324 L21.263,3.24324324 C21.571,3.24324324 21.813,3 21.813,2.7027027 C21.813,2.4 21.571,2.16216216 21.263,2.16216216 L7.172,2.16216216 C7.2105,2.32432432 7.238,2.49189189 7.238,2.66486486" id="Fill-269"></path>
                <path d="M3.0965,2.66486486 C3.0965,2.49189189 3.124,2.32432432 3.168,2.16216216 L0.55,2.16216216 C0.2475,2.16216216 0,2.4 0,2.7027027 C0,3 0.2475,3.24324324 0.55,3.24324324 L3.19,3.24324324 C3.135,3.05945946 3.0965,2.86486486 3.0965,2.66486486" id="Fill-270"></path>
                <path d="M17.688,10.2324324 C17.688,10.4324324 17.6495,10.627027 17.6,10.8108108 L21.021,10.8108108 C21.329,10.8108108 21.571,10.5675676 21.571,10.2702703 C21.571,9.96756757 21.329,9.72972973 21.021,9.72972973 L17.6165,9.72972973 C17.6605,9.89189189 17.688,10.0594595 17.688,10.2324324" id="Fill-271"></path>
                <path d="M13.7885,10.2324324 C13.7885,10.0594595 13.816,9.89189189 13.8545,9.72972973 L0.55,9.72972973 C0.2475,9.72972973 0,9.96756757 0,10.2702703 C0,10.5675676 0.2475,10.8108108 0.55,10.8108108 L13.8765,10.8108108 C13.827,10.627027 13.7885,10.4324324 13.7885,10.2324324" id="Fill-272"></path>
                <path d="M9.988,17.8 C9.988,18.0054054 9.955,18.1945946 9.9,18.3783784 L20.988,18.3783784 C21.296,18.3783784 21.538,18.1351351 21.538,17.8378378 C21.538,17.5405405 21.296,17.2972973 20.988,17.2972973 L9.922,17.2972973 C9.9605,17.4594595 9.988,17.627027 9.988,17.8" id="Fill-273"></path>
                <path d="M6.1215,17.8 C6.1215,17.627027 6.149,17.4594595 6.193,17.2972973 L0.55,17.2972973 C0.2475,17.2972973 0,17.5405405 0,17.8378378 C0,18.1351351 0.2475,18.3783784 0.55,18.3783784 L6.215,18.3783784 C6.16,18.1945946 6.1215,18.0054054 6.1215,17.8" id="Fill-274"></path>
                <path d="M5.192,0.540540541 C4.147,0.540540541 3.3,1.37297297 3.3,2.39459459 C3.3,3.42162162 4.147,4.25405405 5.192,4.25405405 C6.2315,4.25405405 7.0785,3.42162162 7.0785,2.39459459 C7.0785,1.37297297 6.2315,0.540540541 5.192,0.540540541 L5.192,0.540540541 Z M5.192,4.79459459 C3.8445,4.79459459 2.75,3.71891892 2.75,2.39459459 C2.75,1.07567568 3.8445,0 5.192,0 C6.534,0 7.6285,1.07567568 7.6285,2.39459459 C7.6285,3.71891892 6.534,4.79459459 5.192,4.79459459 L5.192,4.79459459 Z" id="Fill-275"></path>
                <path d="M15.6365,8.10810811 C14.597,8.10810811 13.75,8.94054054 13.75,9.96216216 C13.75,10.9891892 14.597,11.8216216 15.6365,11.8216216 C16.6815,11.8216216 17.5285,10.9891892 17.5285,9.96216216 C17.5285,8.94054054 16.6815,8.10810811 15.6365,8.10810811 L15.6365,8.10810811 Z M15.6365,12.3621622 C14.2945,12.3621622 13.2,11.2864865 13.2,9.96216216 C13.2,8.64324324 14.2945,7.56756757 15.6365,7.56756757 C16.984,7.56756757 18.0785,8.64324324 18.0785,9.96216216 C18.0785,11.2864865 16.984,12.3621622 15.6365,12.3621622 L15.6365,12.3621622 Z" id="Fill-276"></path>
                <path d="M7.942,15.6756757 C6.897,15.6756757 6.05,16.5081081 6.05,17.5297297 C6.05,18.5567568 6.897,19.3891892 7.942,19.3891892 C8.9815,19.3891892 9.8285,18.5567568 9.8285,17.5297297 C9.8285,16.5081081 8.9815,15.6756757 7.942,15.6756757 L7.942,15.6756757 Z M7.942,19.9297297 C6.5945,19.9297297 5.5,18.8540541 5.5,17.5297297 C5.5,16.2108108 6.5945,15.1351351 7.942,15.1351351 C9.284,15.1351351 10.3785,16.2108108 10.3785,17.5297297 C10.3785,18.8540541 9.284,19.9297297 7.942,19.9297297 L7.942,19.9297297 Z" id="Fill-277"></path>
            </g>
        </g>
    </g>
</svg>