<?xml version="1.0" encoding="UTF-8" standalone="no"?>
<svg width="24px" height="23px" viewBox="0 0 24 23" version="1.1" xmlns="http://www.w3.org/2000/svg" xmlns:xlink="http://www.w3.org/1999/xlink" xmlns:sketch="http://www.bohemiancoding.com/sketch/ns">
    <!-- Generator: Sketch 3.3.1 (12005) - http://www.bohemiancoding.com/sketch -->
    <title>ico_nav_outlets</title>
    <desc>Created with Sketch.</desc>
    <defs></defs>
    <g id="Sauvignon-Icons" stroke="none" stroke-width="1" fill="none" fill-rule="evenodd" sketch:type="MSPage">
        <g id="Group" sketch:type="MSLayerGroup" transform="translate(-388.000000, -917.000000)">
            <g id="store-copy" transform="translate(378.000000, 915.000000)" sketch:type="MSShapeGroup">
                <path d="M30.9625,24.965 L13.5,24.965 L13.5,13 L14.2905,13 L14.2905,24.175 L30.1715,24.175 L30.1715,13 L30.9625,13 L30.9625,24.965" id="Fill-325" fill="#FFFFFF"></path>
                <path d="M11.0555,13.895 L10.5,13.335 L21.9795,2 L33.4585,13.335 L32.9025,13.895 L21.9795,3.11 L11.0555,13.895" id="Fill-326" fill="#FFFFFE"></path>
                <path d="M25.5855,24.435 L24.795,24.435 L24.795,15.755 C24.795,15.225 24.361,14.79 23.8285,14.79 L20.2565,14.79 C19.724,14.79 19.29,15.225 19.29,15.755 L19.29,24.435 L18.5,24.435 L18.5,15.755 C18.5,14.79 19.288,14 20.2565,14 L23.8285,14 C24.7975,14 25.5855,14.79 25.5855,15.755 L25.5855,24.435" id="Fill-327" fill="#FFFFFF"></path>
            </g>
        </g>
    </g>
</svg>