<?xml version="1.0" encoding="UTF-8" standalone="no"?>
<svg width="19px" height="17px" viewBox="0 0 19 17" version="1.1" xmlns="http://www.w3.org/2000/svg" xmlns:xlink="http://www.w3.org/1999/xlink" xmlns:sketch="http://www.bohemiancoding.com/sketch/ns">
    <!-- Generator: Sketch 3.3.1 (12005) - http://www.bohemiancoding.com/sketch -->
    <title>ico_filter_status</title>
    <desc>Created with Sketch.</desc>
    <defs></defs>
    <g id="Sauvignon-Icons" stroke="none" stroke-width="1" fill="none" fill-rule="evenodd" sketch:type="MSPage">
        <g id="filter-2-+-clear-+-filter" sketch:type="MSLayerGroup" transform="translate(0.000000, -84.000000)" fill="#393939">
            <g id="filter-2" transform="translate(0.000000, 84.000000)" sketch:type="MSShapeGroup">
                <path d="M6.251,2.26513514 C6.251,2.43513514 6.2225,2.60054054 6.175,2.75675676 L18.3635,2.75675676 C18.6295,2.75675676 18.8385,2.55 18.8385,2.2972973 C18.8385,2.04 18.6295,1.83783784 18.3635,1.83783784 L6.194,1.83783784 C6.22725,1.97567568 6.251,2.11810811 6.251,2.26513514" id="Fill-269"></path>
                <path d="M2.67425,2.26513514 C2.67425,2.11810811 2.698,1.97567568 2.736,1.83783784 L0.475,1.83783784 C0.21375,1.83783784 0,2.04 0,2.2972973 C0,2.55 0.21375,2.75675676 0.475,2.75675676 L2.755,2.75675676 C2.7075,2.60054054 2.67425,2.43513514 2.67425,2.26513514" id="Fill-270"></path>
                <path d="M15.276,8.69756757 C15.276,8.86756757 15.24275,9.03297297 15.2,9.18918919 L18.1545,9.18918919 C18.4205,9.18918919 18.6295,8.98243243 18.6295,8.72972973 C18.6295,8.47243243 18.4205,8.27027027 18.1545,8.27027027 L15.21425,8.27027027 C15.25225,8.40810811 15.276,8.55054054 15.276,8.69756757" id="Fill-271"></path>
                <path d="M11.90825,8.69756757 C11.90825,8.55054054 11.932,8.40810811 11.96525,8.27027027 L0.475,8.27027027 C0.21375,8.27027027 0,8.47243243 0,8.72972973 C0,8.98243243 0.21375,9.18918919 0.475,9.18918919 L11.98425,9.18918919 C11.9415,9.03297297 11.90825,8.86756757 11.90825,8.69756757" id="Fill-272"></path>
                <path d="M8.626,15.13 C8.626,15.3045946 8.5975,15.4654054 8.55,15.6216216 L18.126,15.6216216 C18.392,15.6216216 18.601,15.4148649 18.601,15.1621622 C18.601,14.9094595 18.392,14.7027027 18.126,14.7027027 L8.569,14.7027027 C8.60225,14.8405405 8.626,14.982973 8.626,15.13" id="Fill-273"></path>
                <path d="M5.28675,15.13 C5.28675,14.982973 5.3105,14.8405405 5.3485,14.7027027 L0.475,14.7027027 C0.21375,14.7027027 0,14.9094595 0,15.1621622 C0,15.4148649 0.21375,15.6216216 0.475,15.6216216 L5.3675,15.6216216 C5.32,15.4654054 5.28675,15.3045946 5.28675,15.13" id="Fill-274"></path>
                <path d="M4.484,0.459459459 C3.5815,0.459459459 2.85,1.16702703 2.85,2.03540541 C2.85,2.90837838 3.5815,3.61594595 4.484,3.61594595 C5.38175,3.61594595 6.11325,2.90837838 6.11325,2.03540541 C6.11325,1.16702703 5.38175,0.459459459 4.484,0.459459459 L4.484,0.459459459 Z M4.484,4.07540541 C3.32025,4.07540541 2.375,3.16108108 2.375,2.03540541 C2.375,0.914324324 3.32025,0 4.484,0 C5.643,0 6.58825,0.914324324 6.58825,2.03540541 C6.58825,3.16108108 5.643,4.07540541 4.484,4.07540541 L4.484,4.07540541 Z" id="Fill-275"></path>
                <path d="M13.50425,6.89189189 C12.6065,6.89189189 11.875,7.59945946 11.875,8.46783784 C11.875,9.34081081 12.6065,10.0483784 13.50425,10.0483784 C14.40675,10.0483784 15.13825,9.34081081 15.13825,8.46783784 C15.13825,7.59945946 14.40675,6.89189189 13.50425,6.89189189 L13.50425,6.89189189 Z M13.50425,10.5078378 C12.34525,10.5078378 11.4,9.59351351 11.4,8.46783784 C11.4,7.34675676 12.34525,6.43243243 13.50425,6.43243243 C14.668,6.43243243 15.61325,7.34675676 15.61325,8.46783784 C15.61325,9.59351351 14.668,10.5078378 13.50425,10.5078378 L13.50425,10.5078378 Z" id="Fill-276"></path>
                <path d="M6.859,13.3243243 C5.9565,13.3243243 5.225,14.0318919 5.225,14.9002703 C5.225,15.7732432 5.9565,16.4808108 6.859,16.4808108 C7.75675,16.4808108 8.48825,15.7732432 8.48825,14.9002703 C8.48825,14.0318919 7.75675,13.3243243 6.859,13.3243243 L6.859,13.3243243 Z M6.859,16.9402703 C5.69525,16.9402703 4.75,16.0259459 4.75,14.9002703 C4.75,13.7791892 5.69525,12.8648649 6.859,12.8648649 C8.018,12.8648649 8.96325,13.7791892 8.96325,14.9002703 C8.96325,16.0259459 8.018,16.9402703 6.859,16.9402703 L6.859,16.9402703 Z" id="Fill-277"></path>
            </g>
        </g>
    </g>
</svg>