<?xml version="1.0" encoding="UTF-8" standalone="no"?>
<svg width="55px" height="52px" viewBox="0 0 55 52" version="1.1" xmlns="http://www.w3.org/2000/svg" xmlns:xlink="http://www.w3.org/1999/xlink" xmlns:sketch="http://www.bohemiancoding.com/sketch/ns">
    <!-- Generator: Sketch 3.3.1 (12005) - http://www.bohemiancoding.com/sketch -->
    <title>ico_btn_action_todo</title>
    <desc>Created with Sketch.</desc>
    <defs></defs>
    <g id="Sauvignon" stroke="none" stroke-width="1" fill="none" fill-rule="evenodd" sketch:type="MSPage">
        <g id="Product-List" sketch:type="MSArtboardGroup" transform="translate(-358.000000, -669.000000)">
            <g id="Slices" sketch:type="MSLayerGroup" transform="translate(136.000000, 541.000000)"></g>
            <g id="content" sketch:type="MSLayerGroup" transform="translate(0.000000, 124.000000)" fill="#FFFFFE">
                <g id="cell-expanded" transform="translate(0.000000, 495.000000)" sketch:type="MSShapeGroup">
                    <g id="actions" transform="translate(197.000000, 52.000000)">
                        <path d="M213.251282,17.5927885 L194.408269,17.5927885 L188.625641,0 L182.843013,17.5927885 L164,17.5927885 L179.413013,28.4182692 L173.410513,46.0110577 L188.625641,35.1081731 L203.840769,46.0110577 L197.827276,28.4182692 L213.251282,17.5927885 L213.251282,17.5927885 Z M200.344808,41.2783654 L188.625641,32.8745192 L176.906474,41.2783654 L181.589744,27.7326923 L169.716667,19.4725962 L184.118269,19.4725962 L188.625641,5.83846154 L193.133013,19.4725962 L207.534615,19.4725962 L195.661538,27.7216346 L200.344808,41.2783654 L200.344808,41.2783654 Z" id="Shape"></path>
                    </g>
                </g>
            </g>
        </g>
    </g>
</svg>