<?xml version="1.0" encoding="UTF-8" standalone="no"?>
<svg width="24px" height="23px" viewBox="0 0 24 23" version="1.1" xmlns="http://www.w3.org/2000/svg" xmlns:xlink="http://www.w3.org/1999/xlink" xmlns:sketch="http://www.bohemiancoding.com/sketch/ns">
    <!-- Generator: Sketch 3.3.1 (12005) - http://www.bohemiancoding.com/sketch -->
    <title>ico_store</title>
    <desc>Created with Sketch.</desc>
    <defs></defs>
    <g id="Sauvignon-Icons" stroke="none" stroke-width="1" fill="none" fill-rule="evenodd" sketch:type="MSPage">
        <g id="Group" sketch:type="MSLayerGroup" transform="translate(-21.000000, -126.000000)" fill="#525252">
            <g id="store" transform="translate(20.000000, 125.000000)" sketch:type="MSShapeGroup">
                <path d="M21.9625,23.965 L4.5,23.965 L4.5,12 L5.2905,12 L5.2905,23.175 L21.1715,23.175 L21.1715,12 L21.9625,12 L21.9625,23.965" id="Fill-325"></path>
                <path d="M2.0555,12.895 L1.5,12.335 L12.9795,1 L24.4585,12.335 L23.9025,12.895 L12.9795,2.11 L2.0555,12.895" id="Fill-326"></path>
                <path d="M16.5855,23.435 L15.795,23.435 L15.795,14.755 C15.795,14.225 15.361,13.79 14.8285,13.79 L11.2565,13.79 C10.724,13.79 10.29,14.225 10.29,14.755 L10.29,23.435 L9.5,23.435 L9.5,14.755 C9.5,13.79 10.288,13 11.2565,13 L14.8285,13 C15.7975,13 16.5855,13.79 16.5855,14.755 L16.5855,23.435" id="Fill-327"></path>
            </g>
        </g>
    </g>
</svg>