<?xml version="1.0" encoding="UTF-8" standalone="no"?>
<svg width="52px" height="52px" viewBox="0 0 52 52" version="1.1" xmlns="http://www.w3.org/2000/svg" xmlns:xlink="http://www.w3.org/1999/xlink" xmlns:sketch="http://www.bohemiancoding.com/sketch/ns">
    <!-- Generator: Sketch 3.3.1 (12005) - http://www.bohemiancoding.com/sketch -->
    <title>ico_store@2x</title>
    <desc>Created with Sketch.</desc>
    <defs></defs>
    <g id="Sauvignon" stroke="none" stroke-width="1" fill="none" fill-rule="evenodd" sketch:type="MSPage">
        <g id="Outlets-page" sketch:type="MSArtboardGroup" transform="translate(-42.000000, -862.000000)">
            <g id="Slices" sketch:type="MSLayerGroup" transform="translate(22.000000, 150.000000)"></g>
            <g id="content" sketch:type="MSLayerGroup" transform="translate(0.000000, 123.000000)" fill="#525252">
                <g id="cell1" transform="translate(0.000000, 713.000000)" sketch:type="MSShapeGroup">
                    <g id="icon" transform="translate(20.000000, 16.000000)">
                        <g id="store" transform="translate(25.000000, 13.000000)">
                            <path d="M40.925,45.93 L6,45.93 L6,22 L7.581,22 L7.581,44.35 L39.343,44.35 L39.343,22 L40.925,22 L40.925,45.93" id="Fill-325"></path>
                            <path d="M1.111,23.79 L0,22.67 L22.959,0 L45.917,22.67 L44.805,23.79 L22.959,2.22 L1.111,23.79" id="Fill-326"></path>
                            <path d="M30.171,44.87 L28.59,44.87 L28.59,27.51 C28.59,26.45 27.722,25.58 26.657,25.58 L19.513,25.58 C18.448,25.58 17.58,26.45 17.58,27.51 L17.58,44.87 L16,44.87 L16,27.51 C16,25.58 17.576,24 19.513,24 L26.657,24 C28.595,24 30.171,25.58 30.171,27.51 L30.171,44.87" id="Fill-327"></path>
                        </g>
                    </g>
                </g>
            </g>
        </g>
    </g>
</svg>