<?xml version="1.0" encoding="UTF-8" standalone="no"?>
<svg width="26px" height="26px" viewBox="0 0 26 26" version="1.1" xmlns="http://www.w3.org/2000/svg" xmlns:xlink="http://www.w3.org/1999/xlink" xmlns:sketch="http://www.bohemiancoding.com/sketch/ns">
    <!-- Generator: Sketch 3.3.1 (12005) - http://www.bohemiancoding.com/sketch -->
    <title>ico_nav_add</title>
    <desc>Created with Sketch.</desc>
    <defs></defs>
    <g id="Sauvignon-Icons" stroke="none" stroke-width="1" fill="none" fill-rule="evenodd" sketch:type="MSPage">
        <g id="Group" sketch:type="MSLayerGroup" transform="translate(-271.000000, -914.000000)" fill="#FFFFFF">
            <g id="add-new-product" transform="translate(270.000000, 913.000000)" sketch:type="MSShapeGroup">
                <path d="M3.79043252,11.3645542 C3.54969028,11.3645542 3.30286186,11.467343 3.12974384,11.640461 C2.95594958,11.8142553 2.85248451,12.0617599 2.85248451,12.3018259 L2.85248451,15.531559 C2.85248451,15.771625 2.95594958,16.0191296 3.12974384,16.1929239 C3.30286186,16.3660419 3.55036652,16.4688307 3.79178501,16.469507 L11.4475236,16.469507 L11.4475236,24.126598 C11.4475236,24.366664 11.5509887,24.6141687 11.7241067,24.7872867 C11.8979009,24.961081 12.1454056,25.0645461 12.3854716,25.0645461 L15.6138521,25.0645461 C15.8552706,25.0638698 16.1027753,24.9604047 16.2765696,24.7872867 C16.4496876,24.6141687 16.5524764,24.3673403 16.5524764,24.126598 L16.5524764,16.469507 L24.2095675,16.469507 C24.4503097,16.4688307 24.6978144,16.3660419 24.8709324,16.1929239 C25.0440504,16.0198059 25.1468392,15.7723012 25.1475155,15.5302065 L25.1475155,12.3018259 C25.1475155,12.0617599 25.0440504,11.8142553 24.8709324,11.6411373 C24.6971381,11.4680192 24.4496335,11.3645542 24.2095675,11.3645542 L16.5524764,11.3645542 L16.5524764,3.70746309 C16.5524764,3.46739709 16.4490113,3.21989242 16.2752171,3.04542192 C16.1027753,2.87298015 15.8566231,2.76951508 15.6179096,2.76951508 L12.3854716,2.76951508 C12.1447294,2.76951508 11.8972247,2.87298015 11.7241067,3.04609816 C11.5509887,3.21921618 11.4475236,3.46672085 11.4475236,3.70746309 L11.4475236,11.3645542 L3.79043252,11.3645542 L3.79043252,11.3645542 Z M15.6165571,26.4170306 L12.3854716,26.4170306 C11.7856447,26.4170306 11.1952852,26.1715546 10.7679001,25.7434933 C10.3398388,25.3161082 10.0950391,24.7264249 10.0950391,24.126598 L10.0950391,17.8219915 L3.79043252,17.8219915 C3.18925316,17.8213152 2.60024615,17.5758393 2.17353729,17.1491304 C1.74547594,16.7217453 1.5,16.1313858 1.5,15.531559 L1.5,12.3018259 C1.5,11.7019991 1.74547594,11.1123158 2.17353729,10.6842545 C2.60092239,10.2568694 3.1899294,10.0120697 3.79043252,10.0120697 L10.0950391,10.0120697 L10.0950391,3.70746309 C10.0950391,3.10695997 10.3398388,2.51727672 10.7679001,2.08989161 C11.194609,1.66183026 11.7849685,1.41703057 12.3854716,1.41703057 L15.6152046,1.41703057 C16.2157078,1.41703057 16.8047148,1.66183026 17.2320999,2.08989161 C17.6601612,2.5186292 17.9049609,3.10831245 17.9049609,3.70746309 L17.9049609,10.0120697 L24.2095675,10.0120697 C24.8087181,10.0120697 25.3984014,10.2568694 25.8264627,10.6842545 C26.2552003,11.1123158 26.5,11.7019991 26.5,12.3018259 L26.5,15.531559 C26.4993238,16.1334146 26.2538478,16.7224216 25.827139,17.1491304 C25.4004301,17.5758393 24.8114231,17.8213152 24.21092,17.8219915 L17.9049609,17.8219915 L17.9049609,24.126598 C17.9049609,24.7271012 17.6601612,25.3161082 17.2327761,25.7434933 C16.805391,26.1708784 16.216384,26.4163543 15.6165571,26.4170306 L15.6165571,26.4170306 Z" id="Fill-66"></path>
            </g>
        </g>
    </g>
</svg>