<?xml version="1.0" encoding="UTF-8" standalone="no"?>
<svg width="55px" height="52px" viewBox="0 0 55 52" version="1.1" xmlns="http://www.w3.org/2000/svg" xmlns:xlink="http://www.w3.org/1999/xlink" xmlns:sketch="http://www.bohemiancoding.com/sketch/ns">
    <!-- Generator: Sketch 3.3.1 (12005) - http://www.bohemiancoding.com/sketch -->
    <title>ico_btn_action_love_grey</title>
    <desc>Created with Sketch.</desc>
    <defs></defs>
    <g id="Sauvignon" stroke="none" stroke-width="1" fill="none" fill-rule="evenodd" sketch:type="MSPage">
        <g id="Product-List" sketch:type="MSArtboardGroup" transform="translate(-136.000000, -542.000000)">
            <g id="Slices" sketch:type="MSLayerGroup" transform="translate(136.000000, 541.000000)"></g>
            <g id="content" sketch:type="MSLayerGroup" transform="translate(0.000000, 124.000000)" fill="#474848">
                <g id="cell2" transform="translate(0.000000, 340.000000)" sketch:type="MSShapeGroup">
                    <path d="M152.859,86 C145.958,86 142,89.868 142,96.611 C142,102.145 147.261,106.926 147.314,106.973 L162.833,121.943 C162.979,122.089 163.144,122.109 163.23,122.109 C163.317,122.109 163.481,122.089 163.615,121.956 L179.085,107.056 C180.385,105.813 184.461,101.531 184.461,96.611 C184.461,89.868 180.503,86 173.602,86 C169.658,86 165.851,89.177 163.933,91.07 L163.23,91.764 L162.528,91.07 C160.61,89.177 156.803,86 152.859,86 L152.859,86 Z M163.23,124.109 C162.547,124.109 161.909,123.847 161.432,123.37 L145.963,108.446 C145.941,108.429 140,103.184 140,96.611 C140,88.832 144.927,84 152.859,84 C157.052,84 160.938,86.867 163.23,88.977 C165.523,86.867 169.409,84 173.602,84 C181.534,84 186.461,88.832 186.461,96.611 C186.461,102.324 181.912,107.12 180.518,108.454 L165.016,123.383 C164.552,123.847 163.914,124.109 163.23,124.109 L163.23,124.109 Z" id="Fill-25"></path>
                </g>
            </g>
        </g>
    </g>
</svg>