<?xml version="1.0" encoding="UTF-8" standalone="no"?>
<svg width="38px" height="34px" viewBox="0 0 38 34" version="1.1" xmlns="http://www.w3.org/2000/svg" xmlns:xlink="http://www.w3.org/1999/xlink" xmlns:sketch="http://www.bohemiancoding.com/sketch/ns">
    <!-- Generator: Sketch 3.3.1 (12005) - http://www.bohemiancoding.com/sketch -->
    <title>ico_filter_status</title>
    <desc>Created with Sketch.</desc>
    <defs></defs>
    <g id="Sauvignon" stroke="none" stroke-width="1" fill="none" fill-rule="evenodd" sketch:type="MSPage">
        <g id="Product-List-Active-Filters" sketch:type="MSArtboardGroup" transform="translate(-16.000000, -145.000000)" fill="#393939">
            <g id="filter-active" sketch:type="MSLayerGroup" transform="translate(0.000000, 121.000000)">
                <g id="filter-2" transform="translate(16.000000, 24.000000)" sketch:type="MSShapeGroup">
                    <path d="M12.502,4.53027027 C12.502,4.87027027 12.445,5.20108108 12.35,5.51351351 L36.727,5.51351351 C37.259,5.51351351 37.677,5.1 37.677,4.59459459 C37.677,4.08 37.259,3.67567568 36.727,3.67567568 L12.388,3.67567568 C12.4545,3.95135135 12.502,4.23621622 12.502,4.53027027" id="Fill-269"></path>
                    <path d="M5.3485,4.53027027 C5.3485,4.23621622 5.396,3.95135135 5.472,3.67567568 L0.95,3.67567568 C0.4275,3.67567568 0,4.08 0,4.59459459 C0,5.1 0.4275,5.51351351 0.95,5.51351351 L5.51,5.51351351 C5.415,5.20108108 5.3485,4.87027027 5.3485,4.53027027" id="Fill-270"></path>
                    <path d="M30.552,17.3951351 C30.552,17.7351351 30.4855,18.0659459 30.4,18.3783784 L36.309,18.3783784 C36.841,18.3783784 37.259,17.9648649 37.259,17.4594595 C37.259,16.9448649 36.841,16.5405405 36.309,16.5405405 L30.4285,16.5405405 C30.5045,16.8162162 30.552,17.1010811 30.552,17.3951351" id="Fill-271"></path>
                    <path d="M23.8165,17.3951351 C23.8165,17.1010811 23.864,16.8162162 23.9305,16.5405405 L0.95,16.5405405 C0.4275,16.5405405 0,16.9448649 0,17.4594595 C0,17.9648649 0.4275,18.3783784 0.95,18.3783784 L23.9685,18.3783784 C23.883,18.0659459 23.8165,17.7351351 23.8165,17.3951351" id="Fill-272"></path>
                    <path d="M17.252,30.26 C17.252,30.6091892 17.195,30.9308108 17.1,31.2432432 L36.252,31.2432432 C36.784,31.2432432 37.202,30.8297297 37.202,30.3243243 C37.202,29.8189189 36.784,29.4054054 36.252,29.4054054 L17.138,29.4054054 C17.2045,29.6810811 17.252,29.9659459 17.252,30.26" id="Fill-273"></path>
                    <path d="M10.5735,30.26 C10.5735,29.9659459 10.621,29.6810811 10.697,29.4054054 L0.95,29.4054054 C0.4275,29.4054054 0,29.8189189 0,30.3243243 C0,30.8297297 0.4275,31.2432432 0.95,31.2432432 L10.735,31.2432432 C10.64,30.9308108 10.5735,30.6091892 10.5735,30.26" id="Fill-274"></path>
                    <path d="M8.968,0.918918919 C7.163,0.918918919 5.7,2.33405405 5.7,4.07081081 C5.7,5.81675676 7.163,7.23189189 8.968,7.23189189 C10.7635,7.23189189 12.2265,5.81675676 12.2265,4.07081081 C12.2265,2.33405405 10.7635,0.918918919 8.968,0.918918919 L8.968,0.918918919 Z M8.968,8.15081081 C6.6405,8.15081081 4.75,6.32216216 4.75,4.07081081 C4.75,1.82864865 6.6405,0 8.968,0 C11.286,0 13.1765,1.82864865 13.1765,4.07081081 C13.1765,6.32216216 11.286,8.15081081 8.968,8.15081081 L8.968,8.15081081 Z" id="Fill-275"></path>
                    <path d="M27.0085,13.7837838 C25.213,13.7837838 23.75,15.1989189 23.75,16.9356757 C23.75,18.6816216 25.213,20.0967568 27.0085,20.0967568 C28.8135,20.0967568 30.2765,18.6816216 30.2765,16.9356757 C30.2765,15.1989189 28.8135,13.7837838 27.0085,13.7837838 L27.0085,13.7837838 Z M27.0085,21.0156757 C24.6905,21.0156757 22.8,19.187027 22.8,16.9356757 C22.8,14.6935135 24.6905,12.8648649 27.0085,12.8648649 C29.336,12.8648649 31.2265,14.6935135 31.2265,16.9356757 C31.2265,19.187027 29.336,21.0156757 27.0085,21.0156757 L27.0085,21.0156757 Z" id="Fill-276"></path>
                    <path d="M13.718,26.6486486 C11.913,26.6486486 10.45,28.0637838 10.45,29.8005405 C10.45,31.5464865 11.913,32.9616216 13.718,32.9616216 C15.5135,32.9616216 16.9765,31.5464865 16.9765,29.8005405 C16.9765,28.0637838 15.5135,26.6486486 13.718,26.6486486 L13.718,26.6486486 Z M13.718,33.8805405 C11.3905,33.8805405 9.5,32.0518919 9.5,29.8005405 C9.5,27.5583784 11.3905,25.7297297 13.718,25.7297297 C16.036,25.7297297 17.9265,27.5583784 17.9265,29.8005405 C17.9265,32.0518919 16.036,33.8805405 13.718,33.8805405 L13.718,33.8805405 Z" id="Fill-277"></path>
                </g>
            </g>
        </g>
    </g>
</svg>