<?xml version="1.0" encoding="UTF-8" standalone="no"?>
<svg width="27px" height="23px" viewBox="0 0 27 23" version="1.1" xmlns="http://www.w3.org/2000/svg" xmlns:xlink="http://www.w3.org/1999/xlink" xmlns:sketch="http://www.bohemiancoding.com/sketch/ns">
    <!-- Generator: Sketch 3.3.1 (12005) - http://www.bohemiancoding.com/sketch -->
    <title>ico_btn_camera</title>
    <desc>Created with Sketch.</desc>
    <defs></defs>
    <g id="Sauvignon-Icons" stroke="none" stroke-width="1" fill="none" fill-rule="evenodd" sketch:type="MSPage">
        <g id="search_1_-+-camera" sketch:type="MSLayerGroup" transform="translate(-1.000000, -3.000000)" fill="#333333">
            <g id="camera" sketch:type="MSShapeGroup">
                <path d="M14.75,8.83416667 C11.0905156,8.83416667 8.125,11.8183333 8.125,15.5008333 C8.125,19.1825 11.0905156,22.1675 14.75,22.1675 C18.4086562,22.1675 21.375,19.1825 21.375,15.5008333 C21.375,11.8191667 18.4086562,8.83416667 14.75,8.83416667 L14.75,8.83416667 Z M18.5221094,18.755 C16.7366719,20.8516667 13.6005625,21.0941667 11.517,19.2966667 C9.43260938,17.5 9.19245313,14.3433333 10.9787187,12.2475 C12.7633281,10.15 15.9002656,9.90833333 17.9838281,11.7058333 C20.0665625,13.5016667 20.3075469,16.6591667 18.5221094,18.755 L18.5221094,18.755 Z" id="Shape"></path>
                <path d="M14.75,12.1675 C12.9206719,12.1675 11.4383281,13.66 11.4375,15.5 L11.4375,15.5016667 C11.4375,15.7308333 11.623,15.9183333 11.8515625,15.9183333 C12.080125,15.9183333 12.265625,15.7308333 12.265625,15.5016667 L12.265625,15.5 C12.2664531,14.12 13.3777969,13.0008333 14.75,13.0008333 C14.9785625,13.0008333 15.1640625,12.8141667 15.1640625,12.5841667 C15.1640625,12.3541667 14.9785625,12.1675 14.75,12.1675 L14.75,12.1675 Z" id="Shape"></path>
                <path d="M25.9230625,8.035 L22.3339688,7.4325 L21.1969531,4.57083333 C20.8168438,3.61666667 19.910875,3 18.890625,3 L10.609375,3 C9.589125,3 8.68315625,3.61666667 8.30221875,4.57166667 L7.16603125,7.4325 L3.57776563,8.035 C2.37367187,8.23583333 1.5,9.2725 1.5,10.5 L1.5,23 C1.5,24.3783333 2.61465625,25.5 3.984375,25.5 L25.515625,25.5 C26.8853438,25.5 28,24.3783333 28,23 L28,10.5 C28,9.2725 27.1263281,8.23583333 25.9230625,8.035 L25.9230625,8.035 Z M26.34375,23 C26.34375,23.4608333 25.9735781,23.8333333 25.515625,23.8333333 L3.984375,23.8333333 C3.52642188,23.8333333 3.15625,23.4608333 3.15625,23 L3.15625,10.5 C3.15625,10.0925 3.44940625,9.745 3.8485625,9.67833333 L8.356875,8.9225 L9.84004688,5.19083333 C9.96675,4.875 10.2706719,4.66666667 10.609375,4.66666667 L18.890625,4.66666667 C19.2285,4.66666667 19.5324219,4.87416667 19.659125,5.19083333 L21.1422969,8.9225 L25.6514375,9.67833333 C26.0505938,9.745 26.34375,10.0925 26.34375,10.5 L26.34375,23 L26.34375,23 Z" id="Shape"></path>
            </g>
        </g>
    </g>
</svg>