<?xml version="1.0" encoding="UTF-8" standalone="no"?>
<svg width="40px" height="21px" viewBox="0 0 40 21" version="1.1" xmlns="http://www.w3.org/2000/svg" xmlns:xlink="http://www.w3.org/1999/xlink" xmlns:sketch="http://www.bohemiancoding.com/sketch/ns">
    <!-- Generator: Sketch 3.3.1 (12005) - http://www.bohemiancoding.com/sketch -->
    <title>ico_nav_love</title>
    <desc>Created with Sketch.</desc>
    <defs></defs>
    <g id="Sauvignon-Icons" stroke="none" stroke-width="1" fill="none" fill-rule="evenodd" sketch:type="MSPage">
        <g id="Group" sketch:type="MSLayerGroup" transform="translate(-2.000000, -917.000000)" fill="#FFFFFF">
            <g id="loved" transform="translate(0.000000, 913.000000)" sketch:type="MSShapeGroup">
                <path d="M23.5,20.5 L41,20.5 L41,21.5 L23.5,21.5 L23.5,20.5 Z" id="Fill-109"></path>
                <path d="M26.5,16 L41,16 L41,17 L26.5,17 L26.5,16 Z" id="Fill-110"></path>
                <path d="M28.5,11.5 L41,11.5 L41,12.5 L28.5,12.5 L28.5,11.5 Z" id="Fill-111"></path>
                <path d="M28.5,7 L41.0636905,7 L41.0636905,8 L28.5,8 L28.5,7 Z" id="Fill-112"></path>
                <path d="M8.9295,5 C5.479,5 3.5,6.934 3.5,10.3055 C3.5,13.0725 6.1305,15.463 6.157,15.4865 L13.9165,22.9715 C13.9895,23.0445 14.072,23.0545 14.115,23.0545 C14.1585,23.0545 14.2405,23.0445 14.3075,22.978 L22.0425,15.528 C22.6925,14.9065 24.7305,12.7655 24.7305,10.3055 C24.7305,6.934 22.7515,5 19.301,5 C17.329,5 15.4255,6.5885 14.4665,7.535 L14.115,7.882 L13.764,7.535 C12.805,6.5885 10.9015,5 8.9295,5 L8.9295,5 Z M14.115,24.0545 C13.7735,24.0545 13.4545,23.9235 13.216,23.685 L5.4815,16.223 C5.4705,16.2145 2.5,13.592 2.5,10.3055 C2.5,6.416 4.9635,4 8.9295,4 C11.026,4 12.969,5.4335 14.115,6.4885 C15.2615,5.4335 17.2045,4 19.301,4 C23.267,4 25.7305,6.416 25.7305,10.3055 C25.7305,13.162 23.456,15.56 22.759,16.227 L15.008,23.6915 C14.776,23.9235 14.457,24.0545 14.115,24.0545 L14.115,24.0545 Z" id="Fill-25"></path>
            </g>
        </g>
    </g>
</svg>