<?xml version="1.0" encoding="UTF-8" standalone="no"?>
<svg width="34px" height="34px" viewBox="0 0 34 34" version="1.1" xmlns="http://www.w3.org/2000/svg" xmlns:xlink="http://www.w3.org/1999/xlink" xmlns:sketch="http://www.bohemiancoding.com/sketch/ns">
    <!-- Generator: Sketch 3.3.1 (12005) - http://www.bohemiancoding.com/sketch -->
    <title>ico_search_header@2x</title>
    <desc>Created with Sketch.</desc>
    <defs></defs>
    <g id="Sauvignon" stroke="none" stroke-width="1" fill="none" fill-rule="evenodd" sketch:type="MSPage">
        <g id="Add---Step-#2" sketch:type="MSArtboardGroup" transform="translate(-12.000000, -63.000000)">
            <g id="Slices" sketch:type="MSLayerGroup" transform="translate(12.000000, 61.000000)"></g>
            <g id="header-nav" sketch:type="MSLayerGroup" transform="translate(0.000000, 35.000000)" fill="#FFFFFF">
                <g id="Search-Bar" transform="translate(17.000000, 27.000000)" sketch:type="MSShapeGroup">
                    <path d="M17.44901,21.67201 C19.0352695,19.9022059 20,17.5638021 20,15 C20,9.478 15.523,5 10,5 C4.478,5 0,9.478 0,15 C0,20.523 4.478,25 10,25 C12.2386294,25 14.3054102,24.2644683 15.9718656,23.0218816 L23.196,30.247 L24.61,28.833 L17.44901,21.67201 Z M10,7.366 C14.492,7.366 18.134,11.008 18.134,15.5 C18.134,19.992 14.492,23.634 10,23.634 C5.508,23.634 1.867,19.992 1.867,15.5 C1.867,11.008 5.508,7.366 10,7.366 Z" id="Search-Icon"></path>
                </g>
            </g>
        </g>
    </g>
</svg>