<?xml version="1.0" encoding="UTF-8" standalone="no"?>
<svg width="20px" height="16px" viewBox="0 0 20 16" version="1.1" xmlns="http://www.w3.org/2000/svg" xmlns:xlink="http://www.w3.org/1999/xlink" xmlns:sketch="http://www.bohemiancoding.com/sketch/ns">
    <!-- Generator: Sketch 3.3.1 (12005) - http://www.bohemiancoding.com/sketch -->
    <title>ico_checkmark</title>
    <desc>Created with Sketch.</desc>
    <defs></defs>
    <g id="Sauvignon-Icons" stroke="none" stroke-width="1" fill="none" fill-rule="evenodd" sketch:type="MSPage">
        <g id="Group" sketch:type="MSLayerGroup" transform="translate(-526.000000, -132.000000)" fill-opacity="0.5" fill="#656565">
            <g id="Fill-26-+-ico_checkmark-copy" transform="translate(526.000000, 132.000000)" sketch:type="MSShapeGroup">
                <path d="M3.29756098,5.33756098 C3.12195122,5.33756098 2.94146341,5.41121951 2.8195122,5.53414634 L1.17560976,7.18097561 C1.04878049,7.30341463 0.975609756,7.48243902 0.975609756,7.6595122 C0.975609756,7.83609756 1.04878049,8.01463415 1.17560976,8.13756098 L7.20487805,14.1687805 C7.44878049,14.4146341 7.91707317,14.4141463 8.16097561,14.1692683 L18.5756098,3.75414634 C18.697561,3.63121951 18.7707317,3.45219512 18.7707317,3.27560976 C18.7707317,3.09853659 18.697561,2.9195122 18.5756098,2.79658537 L16.9268293,1.14926829 C16.6829268,0.904390244 16.2195122,0.903902439 15.9707317,1.1497561 L7.68292683,9.45219512 L3.77560976,5.53365854 C3.65365854,5.41121951 3.47317073,5.33756098 3.29756098,5.33756098 L3.29756098,5.33756098 Z M7.68292683,15.3404878 C7.24878049,15.3404878 6.8195122,15.164878 6.51219512,14.8585366 L0.482926829,8.82780488 C0.175609756,8.52146341 0,8.09560976 0,7.6595122 C0,7.22243902 0.175609756,6.79609756 0.482926829,6.4902439 L2.13170732,4.84390244 C2.74146341,4.23170732 3.85365854,4.23170732 4.46829268,4.84390244 L7.68292683,8.07073171 L15.2829268,0.46 C15.897561,-0.153658537 17.004878,-0.152682927 17.6195122,0.45902439 L19.2634146,2.10682927 C19.5707317,2.41317073 19.7463415,2.83902439 19.7463415,3.27560976 C19.7463415,3.71170732 19.5707317,4.13756098 19.2634146,4.44390244 L8.84878049,14.8585366 C8.54634146,15.164878 8.12195122,15.3404878 7.68292683,15.3404878 L7.68292683,15.3404878 Z" id="Fill-26"></path>
            </g>
        </g>
    </g>
</svg>