<?xml version="1.0" encoding="UTF-8" standalone="no"?>
<svg width="41px" height="24px" viewBox="0 0 41 24" version="1.1" xmlns="http://www.w3.org/2000/svg" xmlns:xlink="http://www.w3.org/1999/xlink" xmlns:sketch="http://www.bohemiancoding.com/sketch/ns">
    <!-- Generator: Sketch 3.3.1 (12005) - http://www.bohemiancoding.com/sketch -->
    <title>ico_nav_totry</title>
    <desc>Created with Sketch.</desc>
    <defs></defs>
    <g id="Sauvignon-Icons" stroke="none" stroke-width="1" fill="none" fill-rule="evenodd" sketch:type="MSPage">
        <g id="Group" sketch:type="MSLayerGroup" transform="translate(-131.000000, -914.000000)">
            <g id="starred" transform="translate(129.000000, 913.000000)" sketch:type="MSShapeGroup">
                <path d="M26.625641,10.2963942 L17.2041346,10.2963942 L14.3128205,1.5 L11.4215064,10.2963942 L2,10.2963942 L9.70650641,15.7091346 L6.70525641,24.5055288 L14.3128205,19.0540865 L21.9203846,24.5055288 L18.9136378,15.7091346 L26.625641,10.2963942 L26.625641,10.2963942 Z M20.1724038,22.1391827 L14.3128205,17.9372596 L8.45323718,22.1391827 L10.7948718,15.3663462 L4.85833333,11.2362981 L12.0591346,11.2362981 L14.3128205,4.41923077 L16.5665064,11.2362981 L23.7673077,11.2362981 L17.8307692,15.3608173 L20.1724038,22.1391827 L20.1724038,22.1391827 Z" id="Shape" fill="#FFFFFE"></path>
                <path d="M25,20.5 L42.5,20.5 L42.5,21.5 L25,21.5 L25,20.5 Z" id="Fill-109" fill="#FFFFFF"></path>
                <path d="M25,16 L42.5,16 L42.5,17 L25,17 L25,16 Z" id="Fill-110" fill="#FFFFFF"></path>
                <path d="M30,11.5 L42.5,11.5 L42.5,12.5 L30,12.5 L30,11.5 Z" id="Fill-111" fill="#FFFFFF"></path>
                <path d="M22.5,7 L42.6019048,7 L42.6019048,8 L22.5,8 L22.5,7 Z" id="Fill-112" fill="#FFFFFF"></path>
            </g>
        </g>
    </g>
</svg>