<?xml version="1.0" encoding="UTF-8" standalone="no"?>
<svg width="34px" height="34px" viewBox="0 0 34 34" version="1.1" xmlns="http://www.w3.org/2000/svg" xmlns:xlink="http://www.w3.org/1999/xlink" xmlns:sketch="http://www.bohemiancoding.com/sketch/ns">
    <!-- Generator: Sketch 3.3.1 (12005) - http://www.bohemiancoding.com/sketch -->
    <title>ico_clear_filter</title>
    <desc>Created with Sketch.</desc>
    <defs></defs>
    <g id="Sauvignon" stroke="none" stroke-width="1" fill="none" fill-rule="evenodd" sketch:type="MSPage">
        <g id="Product-List-Active-Filters" sketch:type="MSArtboardGroup" transform="translate(-597.000000, -145.000000)" fill="#2B2B2B">
            <g id="filter-active" sketch:type="MSLayerGroup" transform="translate(0.000000, 121.000000)">
                <g id="clear" transform="translate(597.000000, 24.000000)" sketch:type="MSShapeGroup">
                    <path d="M16.7106383,1.44680851 C8.29382979,1.44680851 1.44680851,8.29021277 1.44680851,16.7034043 C1.44680851,25.1238298 8.29382979,31.967234 16.7106383,31.967234 C25.1274468,31.967234 31.9737447,25.1238298 31.9737447,16.7034043 C31.9737447,8.29021277 25.1274468,1.44680851 16.7106383,1.44680851 L16.7106383,1.44680851 Z M16.7106383,33.4140426 C7.4966383,33.4140426 0,25.9195745 0,16.7034043 C0,7.49446809 7.4966383,0 16.7106383,0 C25.9246383,0 33.4205532,7.49446809 33.4205532,16.7034043 C33.4205532,25.9195745 25.9246383,33.4140426 16.7106383,33.4140426 L16.7106383,33.4140426 Z" id="Fill-209"></path>
                    <path d="M20.4766809,20.9859574 L12.2978723,12.8114894 L12.8093191,12.2978723 L20.9881277,20.4723404 L20.4766809,20.9859574" id="Fill-210"></path>
                    <path d="M12.8093191,20.9859574 L12.2978723,20.4723404 L20.4766809,12.2978723 L20.9881277,12.8114894 L12.8093191,20.9859574" id="Fill-211"></path>
                </g>
            </g>
        </g>
    </g>
</svg>