<?xml version="1.0" encoding="UTF-8" standalone="no"?>
<svg width="13px" height="13px" viewBox="0 0 13 13" version="1.1" xmlns="http://www.w3.org/2000/svg" xmlns:xlink="http://www.w3.org/1999/xlink" xmlns:sketch="http://www.bohemiancoding.com/sketch/ns">
    <!-- Generator: Sketch 3.3.3 (12081) - http://www.bohemiancoding.com/sketch -->
    <title>ico_search_header</title>
    <desc>Created with Sketch.</desc>
    <defs></defs>
    <g id="Sauvignon-Icons" stroke="none" stroke-width="1" fill="none" fill-rule="evenodd" sketch:type="MSPage">
        <g id="clear-copy-+-Search-Icon-+-ico_search_header" sketch:type="MSLayerGroup" transform="translate(-2.000000, -4.000000)" fill="#FFFFFF">
            <g id="Search-Icon-+-ico_search_header" transform="translate(0.000000, 2.000000)" sketch:type="MSShapeGroup">
                <path d="M11.224505,10.336005 C12.0176348,9.45110294 12.5,8.28190104 12.5,7 C12.5,4.239 10.2615,2 7.5,2 C4.739,2 2.5,4.239 2.5,7 C2.5,9.7615 4.739,12 7.5,12 C8.61931471,12 9.65270511,11.6322341 10.4859328,11.0109408 L14.098,14.6235 L14.805,13.9165 L11.224505,10.336005 Z M7.5,3.183 C9.746,3.183 11.567,5.004 11.567,7.25 C11.567,9.496 9.746,11.317 7.5,11.317 C5.254,11.317 3.4335,9.496 3.4335,7.25 C3.4335,5.004 5.254,3.183 7.5,3.183 Z" id="Search-Icon"></path>
            </g>
        </g>
    </g>
</svg>